<svg width="80" height="80" viewBox="0 0 152 174" fill="none" xmlns="http://www.w3.org/2000/svg">
<path fill-rule="evenodd" clip-rule="evenodd" d="M142.794 81.3986C142.985 81.7814 143.177 82.1642 143.751 83.6953C146.047 79.8675 146.622 76.2311 146.239 72.2119C145.786 67.3809 144.38 62.7882 142.961 58.1518C142.582 56.9103 142.201 55.6657 141.837 54.4126C141.594 53.586 141.388 52.7222 141.181 51.856C140.574 49.3127 139.962 46.7477 138.392 45.0345C136.632 43.1487 134.459 44.1533 132.253 45.1732C131.1 45.7059 129.939 46.2429 128.822 46.3742C110.832 48.6709 95.7119 41.5895 81.7404 31.4458C77.147 28.0008 74.659 28.1922 70.0656 31.4458C53.9888 42.5464 36.9551 51.3504 16.285 45.0345C14.5625 44.4603 13.6056 44.6517 13.0314 46.5656C12.2892 48.735 11.462 50.9043 10.6308 53.0838C8.67546 58.2112 6.69868 63.3948 5.75856 68.7669C5.18439 72.5947 4.61022 76.6139 7.86385 80.2503C8.62941 79.1019 9.39497 78.145 10.1605 77.188C11.6917 75.2741 13.6056 73.743 16.0936 74.3172C18.3386 74.9158 18.1258 76.6849 17.9263 78.343C17.8707 78.8053 17.8161 79.2589 17.8161 79.6761C17.8161 85.2264 17.6247 90.9681 17.0506 96.7098C16.285 106.853 18.7731 116.04 24.8976 124.079C28.3426 128.672 32.1704 132.883 35.9982 137.093C36.3056 137.426 36.6157 137.758 36.9251 138.088C41.2387 142.699 45.4388 147.188 40.9743 154.51C46.0556 153.804 48.8468 150.704 51.651 147.59C52.6492 146.481 53.649 145.371 54.7544 144.366C55.6017 151.822 60.4997 155.377 65.3307 158.883C65.9562 159.337 66.5805 159.791 67.1948 160.251C67.3028 160.336 67.411 160.42 67.5192 160.505C71.8202 163.867 76.2183 167.306 77.3384 173.84C89.7788 167.141 94.3721 155.467 98.3913 142.835C101.454 148.002 104.899 151.639 111.214 152.022C109.301 145.323 110.066 142.261 115.425 138.624C126.717 131.16 131.31 120.059 133.224 107.236C134.373 99.1979 134.373 91.1595 134.373 83.1211C134.373 82.8751 134.369 82.6235 134.365 82.3691C134.331 80.05 134.293 77.4951 137.052 76.8053C140.292 75.9053 141.501 78.56 142.588 80.9488C142.657 81.1001 142.725 81.2504 142.794 81.3986ZM27.0381 87.2692C27.0261 87.6089 27.0141 87.9488 27.0028 88.2887L27.0028 88.2887V90.7768C26.4286 95.3701 26.2372 100.155 27.0028 104.748C28.0176 115.766 35.4012 121.732 42.9157 127.805C45.3218 129.749 47.7414 131.704 49.9696 133.84C53.4896 131.053 54.9865 126.805 56.7859 121.699C57.3345 120.142 57.9113 118.505 58.5822 116.806C59.7305 132.308 61.2616 145.897 70.4483 157.189C63.1755 152.404 57.4338 146.854 55.7113 137.093C54.6661 138.323 53.7986 139.632 52.9503 140.911C51.1579 143.615 49.4509 146.191 46.3332 147.62C46.3332 141.687 44.2279 136.902 40.2087 133.457C25.4717 121.016 20.6869 105.514 24.8975 86.7576V71.6377C27.4184 76.4994 27.2288 81.8692 27.0381 87.2692Z" fill="#DCDCDC"/>
<path d="M27.0029 104.748C25.2804 100.155 25.4718 95.3701 27.0029 90.7767C27.0029 95.3701 27.0029 100.155 27.0029 104.748Z" fill="#CFCFCF"/>
<path fill-rule="evenodd" clip-rule="evenodd" d="M148.727 11.1585C153.32 19.771 151.024 30.2975 142.985 36.2306C132.267 44.2689 120.21 43.8861 107.769 40.6325C97.6258 37.9531 88.439 32.9769 80.2093 26.6611C76.5729 23.7902 74.2762 23.9816 70.6398 26.6611C58.5822 35.6564 45.5677 42.1636 30.0651 42.9292C22.2181 43.312 14.9453 41.7809 8.43802 37.1875C0.208251 31.4458 -2.08843 21.6849 1.93076 11.1585C2.85124 11.6187 2.78794 12.4479 2.72658 13.2516C2.71139 13.4506 2.69632 13.648 2.69632 13.8379C4.22744 25.7041 12.4572 29.5319 22.4095 23.0246C26.2944 20.4347 29.4948 17.0233 32.7055 13.601L32.7063 13.6001C33.2915 12.9763 33.877 12.3522 34.4671 11.7326C45.5677 -0.516329 57.2425 -3.19579 71.9795 3.88564C74.659 5.22537 76.3815 4.8426 78.8695 3.69426C93.9894 -3.19578 105.856 -0.516322 116.765 12.3068C120.401 16.5174 124.038 20.5366 128.822 23.4074C138.2 28.9577 145.856 25.5127 147.77 14.6035C148.416 13.9574 148.517 13.0387 148.648 11.8475L148.648 11.8472C148.672 11.627 148.697 11.3974 148.727 11.1585ZM64.7067 6.37373C53.0322 4.732 46.7474 12.1309 40.3839 19.6225L40.3836 19.6228C40.0706 19.9913 39.7573 20.3601 39.4433 20.728C34.0843 27.0438 27.9599 32.02 19.1559 31.8286H19.1559C18.5817 31.8286 17.8162 31.8286 17.242 31.6372C17.032 31.6372 16.8796 31.4644 16.6585 31.2136C16.4765 31.0073 16.2479 30.7481 15.9023 30.4889C24.8197 28.3487 30.7456 22.386 36.6226 16.4726L36.6233 16.4718C37.0528 16.0397 37.482 15.6078 37.9121 15.1777C45.3764 7.71347 53.6061 3.31149 64.7067 6.37373ZM111.215 14.9862C103.559 6.94784 94.755 3.50283 83.8457 6.56507C94.5636 4.65117 101.262 10.3929 107.387 17.6657C110.066 20.9193 112.937 24.173 116.191 26.8524C120.975 30.8716 126.526 32.7855 132.842 30.8716C123.846 28.0007 117.339 21.4935 111.215 14.9862Z" fill="#DCDCDC"/>
</svg>
