<svg width="80" height="80" viewBox="0 0 182 165" fill="none" xmlns="http://www.w3.org/2000/svg">
<path fill-rule="evenodd" clip-rule="evenodd" d="M173.505 105.834C173.524 106.038 173.544 106.245 173.564 106.454C185.703 88.7113 184.302 71.9028 169.595 51.5926C172.067 50.4389 174.307 51.4961 177.053 52.7925C178.197 53.3323 179.428 53.9136 180.801 54.394C171.463 29.1813 153.72 16.3415 129.908 10.9722C130.743 9.48929 131.834 8.22716 132.95 6.93747C134.644 4.97861 136.394 2.95617 137.379 0C124.773 6.77007 111.699 6.77007 98.6261 6.30317C91.7433 6.30317 84.7556 6.09353 77.8036 5.88497C74.3806 5.78227 70.9661 5.67984 67.5771 5.60282C66.6613 5.60282 65.7471 5.60119 64.8344 5.59957C54.8123 5.58174 44.9699 5.56423 35.1275 7.70387C17.8521 11.4391 6.87996 24.7458 9.91482 42.0211C11.1733 49.7818 9.03968 55.4694 6.73096 61.6239C6.47005 62.3194 6.2069 63.0209 5.94616 63.732C4.77891 67.0003 3.61166 70.5021 2.67785 74.0039C-4.32567 99.45 3.3782 122.328 14.5838 144.973C15.5533 144.434 15.6281 143.349 15.7027 142.267C15.7897 141.005 15.8764 139.747 17.3852 139.37C21.8208 156.645 30.4585 164.583 44.4655 163.882C59.8733 163.182 69.6782 155.245 75.281 137.969L75.2977 137.926C76.455 134.917 77.1664 133.067 80.8838 133.067C84.3856 133.3 86.0197 134.468 86.2532 137.969C86.2532 138.707 86.5329 139.351 86.7977 139.962C86.9519 140.317 87.1011 140.661 87.187 141.004C92.3229 157.112 103.529 165.75 118.469 164.583C132.243 163.649 141.348 154.311 144.149 137.969C144.256 137.487 144.314 136.968 144.374 136.435C144.574 134.644 144.792 132.692 146.95 131.433C147.332 135.628 146.882 139.685 146.432 143.754C146.055 147.157 145.677 150.569 145.783 154.077C161.84 141.652 164.749 123.906 167.711 105.835C168.367 101.837 169.025 97.823 169.829 93.8472C172.734 97.6469 173.072 101.233 173.505 105.834ZM51.8088 63.4717C49.232 65.306 46.5911 67.186 43.0649 67.0004C42.4487 67.0004 41.8326 67.1955 41.2507 67.3798C40.7303 67.5446 40.2374 67.7007 39.7965 67.7007C32.0927 72.1363 27.4237 79.1398 24.3888 87.3106C21.8982 94.2077 20.8226 101.262 19.7428 108.344C19.5068 109.892 19.2706 111.441 19.0194 112.99C18.0856 118.126 19.0194 119.76 24.8557 118.126C40.7303 113.457 56.8384 112.757 72.4796 119.527C78.5494 122.328 84.1522 122.095 90.2219 119.76C101.894 115.091 114.034 113.224 126.64 115.792C129.325 116.258 131.951 116.784 134.577 117.309C137.204 117.834 139.83 118.36 142.515 118.826C142.566 118.839 142.619 118.853 142.673 118.866C144.56 119.341 147.644 120.117 147.417 116.258C146.484 100.617 144.382 85.443 132.71 73.537C125.94 66.7669 115.201 64.199 107.964 67.9342C95.3578 74.4708 82.7515 75.4046 69.6782 71.2025C69.0834 70.8059 68.7411 70.1988 68.4012 69.5957C67.9407 68.7788 67.4844 67.9693 66.4099 67.7007C65.1648 67.5451 63.8938 67.4413 62.6228 67.3376C60.0808 67.1301 57.5388 66.9225 55.2043 66.3C52.6363 65.8331 54.037 64.199 55.2043 63.2652C55.4377 62.3314 55.2043 61.3976 53.8036 62.0979C53.1335 62.5287 52.4733 62.9986 51.8088 63.4717Z" fill="#DCDCDC"/>
<path d="M64.5423 37.1187C53.1032 45.056 43.5317 54.6275 35.1275 65.8331C39.7965 51.5926 51.7025 43.8887 63.375 35.9514C63.8419 35.718 64.0754 35.4845 64.3088 35.718C65.0092 35.9514 64.7757 36.6518 64.5423 37.1187Z" fill="#DAD9D9"/>
<path d="M48.2007 30.1151C40.2634 38.7528 32.3261 47.3905 26.4898 57.6623C29.0578 44.8225 39.0962 37.819 48.2007 30.1151Z" fill="#DDDCDC"/>
<path d="M30.6919 28.0141C24.6222 36.4183 19.9532 45.2895 16.218 54.8609C16.218 43.4219 22.9881 35.2511 29.5247 26.8469C30.6919 26.38 31.3923 26.6134 30.6919 28.0141Z" fill="#CCCBCB"/>
<path d="M55.4377 63.4986C54.9708 63.0317 54.5039 62.7983 54.037 62.3314C58.9395 57.4289 65.0092 54.6275 71.0789 51.3592C72.7131 50.6588 72.9465 51.3592 72.4796 52.7599C66.6434 56.2617 61.0405 59.7634 55.4377 63.4986Z" fill="#C5C4C4"/>
<path d="M72.4796 52.7599C72.0127 52.293 71.5458 51.8261 71.0789 51.3592C76.2148 47.3905 82.0511 45.2894 88.5877 44.8225C83.2184 47.3905 77.849 49.9585 72.4796 52.7599Z" fill="#858484"/>
<path d="M22.2877 56.7285C19.2529 51.3591 22.5212 47.3905 25.7895 43.4218C24.6222 48.0908 23.455 52.5264 22.2877 56.7285Z" fill="#7A7A7A"/>
<path d="M69.6782 71.4359C67.1103 71.6693 67.3437 69.3348 66.4099 67.9341C71.3124 65.3661 76.6817 65.1327 81.8176 65.5996C78.7828 69.8017 72.0127 65.833 69.6782 71.4359Z" fill="#909090"/>
<path d="M32.3261 62.7982C30.4585 57.8958 33.0265 54.6274 36.7617 52.2929C35.361 55.7947 33.9603 59.2965 32.3261 62.7982Z" fill="#8B8B8A"/>
<path d="M43.0648 67.0003C42.3645 68.6345 40.9638 68.1676 39.5631 68.1676C40.4969 63.2651 43.9986 60.4637 49.1346 55.7947C47.5004 61.631 43.0648 63.0317 43.0648 67.0003Z" fill="#BBBABA"/>
<path d="M64.5423 37.1187C64.0754 36.6518 63.6085 36.1849 63.375 35.9514C66.6433 32.9166 70.612 31.5159 76.6817 29.4148C71.7793 33.3835 68.2775 35.718 64.5423 37.1187Z" fill="#7E7D7D"/>
<path d="M30.6919 28.0141C30.225 27.5472 29.9916 27.0803 29.5247 26.8469C31.1588 23.5785 33.7268 21.0106 37.6955 20.0768C35.361 22.6447 33.0264 25.4461 30.6919 28.0141Z" fill="#878787"/>
</svg>
