<svg width="80" height="80" viewBox="0 0 127 177" fill="none" xmlns="http://www.w3.org/2000/svg">
<path d="M13.1203 127.437C4.99754 112.636 -2.58371 98.0147 0.845907 80.5056C1.74844 75.8125 3.19248 71.1193 5.71957 67.1482C8.42716 62.8161 8.06614 60.65 2.47046 61.011C2.65097 60.289 2.47046 59.928 2.65097 59.7475C9.32969 54.6933 10.7737 52.7077 13.4813 43.8629C15.1059 44.7655 14.2033 46.2095 14.3839 47.4731C14.7449 49.4586 15.2864 51.9857 17.633 51.6247C20.16 51.0832 18.5355 48.5561 18.5355 47.1121C18.1745 39.1698 19.9795 36.4622 27.9218 34.2961C31.5319 33.2131 35.3225 32.6716 39.1132 31.9496C54.6367 29.242 67.8136 22.7437 76.4779 8.84479C76.1169 10.6499 75.7559 12.6354 75.2144 14.4405C79.9075 10.6499 83.5176 6.31771 83.8786 0C97.7776 4.87366 115.467 27.9784 116.189 42.5994C116.189 44.224 116.731 46.2095 116.009 47.2926C111.316 54.3323 114.745 58.3034 120.702 62.4551C124.853 65.3431 125.576 70.9388 125.937 75.993C127.02 89.5309 123.409 108.304 116.55 123.647C115.467 115.163 116.189 107.582 115.106 100C111.496 75.0905 97.4166 65.5237 73.0483 72.7439C66.5501 74.7295 60.9544 74.91 54.8172 72.5634C48.4995 70.2168 41.8208 70.2168 35.3225 70.7583C27.1998 71.4804 22.5066 76.715 19.2575 83.5742C14.3839 94.4046 13.1203 105.776 13.1203 117.509C13.1203 120.758 13.1203 124.008 13.1203 127.437Z" fill="#DCDCDC"/>
<path d="M110.052 150.903C116.55 158.845 114.384 169.134 104.998 173.647C96.8752 177.618 88.7524 176.174 80.6296 173.286C75.5755 171.481 70.7018 168.954 66.5502 165.524C63.4816 162.997 61.6765 163.719 58.9689 165.704C50.1241 172.203 40.5573 176.715 29.1854 176.354C16.911 175.813 9.69079 166.787 12.5789 156.138C13.4814 152.708 14.0229 152.167 17.9941 149.82C18.1746 150 18.5356 150.542 18.5356 150.542C13.6619 155.596 12.9399 159.387 16.3695 162.816C20.7017 167.329 24.8533 164.802 28.4634 161.914C31.171 159.748 33.3371 157.221 35.6836 154.694C42.5429 147.293 50.1241 145.488 59.5104 149.639C61.857 150.722 63.6621 150.722 66.1892 149.639C75.756 145.668 82.9762 147.293 90.0159 154.694C92.543 157.401 95.2506 160.289 98.1387 162.455C101.388 164.982 105.359 166.607 108.969 162.997C112.579 159.387 112.038 155.596 108.969 151.806C108.789 151.083 108.789 150.542 110.052 150.903Z" fill="#DCDCDC"/>
</svg>
